HIERARCHY
ROOT SpineBase
{
  OFFSET 0.000000 0.000000 0.000000
  CHANNELS 6 Xposition Yposition Zposition Zrotation Xrotation Yrotation
  JOINT SpineMid
  {
    OFFSET -0.000000 19.219121 0.000000
    CHANNELS 3 Zrotation Xrotation Yrotation
    JOINT SpineShoulder
    {
      OFFSET 0.027307 14.544601 -0.513193
      CHANNELS 3 Zrotation Xrotation Yrotation
      JOINT Neck
      {
        OFFSET -0.012259 4.863017 -0.355467
        CHANNELS 3 Zrotation Xrotation Yrotation
        JOINT Head
        {
          OFFSET -3.360861 -2.133264 -1.662568
          CHANNELS 3 Zrotation Xrotation Yrotation
          End Site
          {
            OFFSET 0 0 0
          }
        }
      }
      JOINT ShoulderLeft
      {
        OFFSET -8.840166 -0.433768 -1.631487
        CHANNELS 3 Zrotation Xrotation Yrotation
        JOINT ElbowLeft
        {
          OFFSET -5.879595 -17.510842 1.200660
          CHANNELS 3 Zrotation Xrotation Yrotation
          JOINT WristLeft
          {
            OFFSET 0.472252 -15.340433 -5.474451
            CHANNELS 3 Zrotation Xrotation Yrotation
            JOINT HandLeft
            {
              OFFSET 1.517551 -3.633937 -1.105345
              CHANNELS 3 Zrotation Xrotation Yrotation
              JOINT HandTipLeft
              {
                OFFSET 1.262447 -5.922087 -2.402686
                CHANNELS 3 Zrotation Xrotation Yrotation
                End Site
                {
                  OFFSET 0 0 0
                }
              }
              JOINT ThumbLeft
              {
                OFFSET 0.994053 -0.439042 0.494198
                CHANNELS 3 Zrotation Xrotation Yrotation
                End Site
                {
                  OFFSET 0 0 0
                }
              }
            }
          }
        }
      }
      JOINT ShoulderRight
      {
        OFFSET 3.998466 -2.864258 -5.331997
        CHANNELS 3 Zrotation Xrotation Yrotation
        JOINT ElbowRight
        {
          OFFSET -1.806775 -17.234689 -5.333940
          CHANNELS 3 Zrotation Xrotation Yrotation
          JOINT WristRight
          {
            OFFSET -12.884393 6.979318 -2.159149
            CHANNELS 3 Zrotation Xrotation Yrotation
            JOINT HandRight
            {
              OFFSET -0.296367 2.847209 4.067380
              CHANNELS 3 Zrotation Xrotation Yrotation
              JOINT HandTipRight
              {
                OFFSET -3.955172 1.256835 0.057753
                CHANNELS 3 Zrotation Xrotation Yrotation
                End Site
                {
                  OFFSET 0 0 0
                }
              }
              JOINT ThumbRight
              {
                OFFSET -3.734782 -3.199355 0.099167
                CHANNELS 3 Zrotation Xrotation Yrotation
                End Site
                {
                  OFFSET 0 0 0
                }
              }
            }
          }
        }
      }
    }
  }
  JOINT HipLeft
  {
    OFFSET -4.452533 -0.611132 -2.020107
    CHANNELS 3 Zrotation Xrotation Yrotation
    JOINT KneeLeft
    {
      OFFSET 4.685410 -20.127721 -8.262404
      CHANNELS 3 Zrotation Xrotation Yrotation
      JOINT AnkleLeft
      {
        OFFSET -5.472227 -26.439234 12.605658
        CHANNELS 3 Zrotation Xrotation Yrotation
        JOINT FootLeft
        {
          OFFSET -2.192502 -3.666665 -7.580561
          CHANNELS 3 Zrotation Xrotation Yrotation
          End Site
          {
            OFFSET 0 0 0
          }
        }
      }
    }
  }
  JOINT HipRight
  {
    OFFSET 2.073475 1.036149 -2.770857
    CHANNELS 3 Zrotation Xrotation Yrotation
    JOINT KneeRight
    {
      OFFSET -7.256312 -14.423240 -11.636175
      CHANNELS 3 Zrotation Xrotation Yrotation
      JOINT AnkleRight
      {
        OFFSET -22.083980 1.617333 11.368314
        CHANNELS 3 Zrotation Xrotation Yrotation
        JOINT FootRight
        {
          OFFSET 4.776024 -9.295573 -2.289741
          CHANNELS 3 Zrotation Xrotation Yrotation
          End Site
          {
            OFFSET 0 0 0
          }
        }
      }
    }
  }
}
MOTION
Frames: 10
Frame Time: 0.033333
181.589878 51.958713 345.920543 -2.551353 -0.810080 -7.997476 0.109485 0.094934 7.895897 0.931419 -0.270953 -0.037177 -30.132093 15.764648 4.313543 0.000000 0.000000 0.000000 -74.298191 39.804574 10.833980 13.433861 0.095949 42.163457 -11.387896 20.158921 41.286854 -27.330924 13.188274 -25.788030 0.000000 0.000000 0.000000 0.000000 0.000000 0.000000 -50.049746 3.093891 17.813354 -6.362944 8.192054 -19.233861 68.441342 -46.055688 1.198995 -73.015139 -3.054363 60.934709 0.000000 0.000000 0.000000 0.000000 0.000000 0.000000 4.400826 -12.032245 4.820827 16.788534 14.720603 7.439326 -25.195007 -13.537155 19.528096 0.000000 0.000000 0.000000 28.528038 -31.571751 20.787770 94.879133 13.687034 -72.190826 -159.355073 71.744566 99.142306 0.000000 0.000000 0.000000
179.961487 45.966076 344.400943 -5.943866 1.144859 -9.300406 1.371954 -0.406722 9.179854 1.159192 -0.462025 -0.099241 -49.780353 21.624273 10.914414 0.000000 0.000000 0.000000 -96.696534 46.076734 23.462579 20.417292 -2.327221 53.199286 -25.096319 20.464547 49.110190 -7.246573 8.459896 -23.810023 0.000000 0.000000 0.000000 0.000000 0.000000 0.000000 -75.232798 3.144258 28.216875 18.409022 -3.617794 -27.737084 65.050136 -48.622691 12.203430 -71.164608 7.455624 61.810514 0.000000 0.000000 0.000000 0.000000 0.000000 0.000000 28.543151 -12.721503 -0.337138 -8.946341 14.455513 18.382935 -18.779043 -18.025739 18.842071 0.000000 0.000000 0.000000 37.972230 -34.969219 25.231724 82.542570 47.504774 -53.231456 -172.986562 84.953546 145.833591 0.000000 0.000000 0.000000
179.004146 41.238188 343.317532 -8.055096 2.632478 -8.989036 1.469870 -0.537030 8.919282 1.348600 -0.660929 -0.157122 -70.163756 24.324668 19.260142 0.000000 0.000000 0.000000 -106.279459 55.513246 36.626177 19.881141 -9.818268 55.423156 -32.900339 19.755512 48.595650 3.035816 27.594984 -1.886307 0.000000 0.000000 0.000000 0.000000 0.000000 0.000000 -94.853744 8.458518 41.907971 31.857294 -24.118958 -29.738033 57.948977 -46.997687 21.457839 -69.790275 14.008436 57.372178 0.000000 0.000000 0.000000 0.000000 0.000000 0.000000 52.034921 -13.382014 -6.668107 -34.393231 8.177029 27.726972 -17.540505 -13.267228 18.615339 0.000000 0.000000 0.000000 39.063164 -36.419668 27.437656 44.315170 61.279235 -12.630079 -103.618983 87.238595 92.407856 0.000000 0.000000 0.000000
178.254279 37.925465 342.111319 -10.145680 3.384228 1.324593 1.320053 -0.585932 -1.344471 1.503070 -0.960427 -0.238716 -82.810839 22.329107 25.656073 0.000000 0.000000 0.000000 -105.676451 59.509248 40.776787 23.850992 -8.446729 56.998852 -45.618496 9.433039 24.752935 -119.878964 51.944479 19.161169 0.000000 0.000000 0.000000 0.000000 0.000000 0.000000 -107.633109 10.857766 53.419977 40.404205 -40.356759 -27.628638 54.869853 -41.496858 18.239105 -74.746425 4.156347 56.334002 0.000000 0.000000 0.000000 0.000000 0.000000 0.000000 65.353789 -19.768555 -15.475261 -45.107856 -2.805060 30.758113 -18.622677 -9.617968 21.855201 0.000000 0.000000 0.000000 39.636434 -45.618541 19.164775 6.344073 63.951835 24.181773 48.873488 71.911951 -41.519631 0.000000 0.000000 0.000000
177.927400 37.572941 340.988823 -11.708604 3.507490 4.865852 1.452886 -0.194281 -4.835398 1.593825 -1.106003 -0.295921 -90.672064 18.461873 29.676195 0.000000 0.000000 0.000000 -104.137710 59.172817 39.931163 43.407952 -11.161751 58.083293 -20.158846 14.276176 30.315976 -148.635163 30.661909 69.366602 0.000000 0.000000 0.000000 0.000000 0.000000 0.000000 -112.466257 12.839777 59.826799 43.512260 -49.423074 -24.582850 55.294905 -43.057453 11.447815 -66.101973 0.553292 70.330195 0.000000 0.000000 0.000000 0.000000 0.000000 0.000000 74.148474 -25.238133 -17.207760 -53.468608 -5.925202 32.461097 -12.715687 -19.477504 22.002292 0.000000 0.000000 0.000000 42.466929 -48.109392 13.727244 -10.855231 64.162510 42.847900 25.243460 61.814457 -30.253268 0.000000 0.000000 0.000000
177.882250 36.802350 340.471198 -11.923903 3.063855 5.579774 1.525363 -0.179213 -5.593164 1.647974 -1.146578 -0.307528 -96.821861 15.657439 32.730604 0.000000 0.000000 0.000000 -100.565841 58.468473 37.324358 56.056536 -6.652103 58.264334 28.243771 -30.845922 11.780605 162.996355 -42.545077 57.224282 0.000000 0.000000 0.000000 0.000000 0.000000 0.000000 -113.960092 12.637213 61.550628 46.310323 -51.852588 -19.105066 55.434867 -51.122632 1.169615 -61.890563 2.028418 80.538577 0.000000 0.000000 0.000000 0.000000 0.000000 0.000000 76.583444 -24.773278 -18.472628 -56.725639 -7.347776 31.084205 -10.961027 -30.629798 39.961815 0.000000 0.000000 0.000000 42.133746 -48.280825 12.378804 3.576584 69.131425 29.578617 13.503599 57.588759 -29.191067 0.000000 0.000000 0.000000
178.358399 44.673280 339.862137 -10.748654 2.923188 2.264865 1.382175 -0.265127 -2.307239 1.555074 -1.053820 -0.267234 -96.536046 10.423714 33.328308 0.000000 0.000000 0.000000 -87.133292 48.774965 21.448833 69.031215 -2.434329 48.601915 19.660361 -25.306499 3.352948 139.216040 -42.387859 2.848369 0.000000 0.000000 0.000000 0.000000 0.000000 0.000000 -112.012610 -0.539976 46.183864 54.898692 -32.681737 -21.580383 62.190705 -54.485751 0.382183 -78.300431 2.694022 48.521670 0.000000 0.000000 0.000000 0.000000 0.000000 0.000000 66.292480 -22.939857 -15.835720 -52.593516 -0.190954 28.643936 -5.960968 -35.005902 45.277929 0.000000 0.000000 0.000000 39.942803 -43.969748 14.134823 33.574352 70.273250 4.248266 10.802042 55.487515 -33.365564 0.000000 0.000000 0.000000
178.364497 48.868690 339.446429 -10.802733 2.454020 17.384205 1.100086 -0.486239 -17.479114 1.680399 -1.228526 -0.285910 -91.152433 5.602716 33.265488 0.000000 0.000000 0.000000 -100.669724 37.707487 19.949965 89.410217 4.715474 43.120623 12.304144 -16.609475 0.904947 134.940279 -6.426151 -60.884193 0.000000 0.000000 0.000000 0.000000 0.000000 0.000000 -119.057907 -4.582608 47.521993 62.961497 -34.729136 -19.549491 65.905735 -60.184092 -7.145153 -75.872363 13.248399 21.116628 0.000000 0.000000 0.000000 0.000000 0.000000 0.000000 51.198428 -29.942665 -24.950346 -42.828338 2.890479 22.940984 -10.636914 -29.561853 44.769573 0.000000 0.000000 0.000000 25.590560 -53.146876 -3.900567 34.974723 70.465899 2.226266 16.983393 48.367679 -35.231411 0.000000 0.000000 0.000000
178.228032 50.249450 339.786513 -11.017662 1.883359 26.036722 1.149415 -0.616886 -26.179546 1.872440 -1.629311 -0.309694 -78.421593 -0.557945 32.771539 0.000000 0.000000 0.000000 -115.621245 26.887138 16.768015 103.612445 12.797844 36.424547 21.992739 -28.492484 -3.106594 -124.456790 51.035757 117.128828 0.000000 0.000000 0.000000 0.000000 0.000000 0.000000 -118.708559 -8.311215 43.933293 63.870120 -29.159320 -21.301223 68.326816 -63.731922 -8.572128 -72.322755 18.463245 13.253341 0.000000 0.000000 0.000000 0.000000 0.000000 0.000000 36.201855 -31.261167 -32.930861 -32.112100 7.842396 18.899322 -13.758990 -29.089670 49.244579 0.000000 0.000000 0.000000 15.041350 -57.178293 -17.785095 54.213933 68.581793 -21.503058 5.449621 48.008162 -29.043240 0.000000 0.000000 0.000000
177.995091 49.895219 340.333365 -11.164793 1.333117 23.531572 1.313573 -1.216635 -23.762064 1.676071 -1.302368 -0.314969 -41.031300 -5.016215 27.833733 0.000000 0.000000 0.000000 -129.041221 14.858276 8.065840 115.666779 25.766476 26.413253 49.811090 -77.816240 2.015615 -102.963356 22.328639 100.088806 0.000000 0.000000 0.000000 0.000000 0.000000 0.000000 -117.704049 -11.721598 40.093595 64.344248 -23.281960 -24.237335 71.509442 -60.336788 -8.514658 -76.605361 12.594178 12.684456 0.000000 0.000000 0.000000 0.000000 0.000000 0.000000 26.297483 -27.307841 -30.996177 -25.123729 16.807524 14.323396 -36.601688 -11.914009 57.187182 0.000000 0.000000 0.000000 21.463267 -53.251947 -17.059955 56.264993 65.307875 -28.714322 -13.117114 48.560565 -18.041737 0.000000 0.000000 0.000000
